<svg width="44" height="44" viewBox="0 0 44 44" fill="none" xmlns="http://www.w3.org/2000/svg">
<path d="M22.1457 43.2346C34.0812 43.2346 43.7569 33.5589 43.7569 21.6234C43.7569 9.68779 34.0812 0.012085 22.1457 0.012085C10.2101 0.012085 0.534393 9.68779 0.534393 21.6234C0.534393 33.5589 10.2101 43.2346 22.1457 43.2346Z" fill="url(#paint0_radial_109_423)"/>
<path d="M22.1455 31.7843C27.7573 31.7843 32.3066 27.2351 32.3066 21.6233C32.3066 16.0115 27.7573 11.4623 22.1455 11.4623C16.5337 11.4623 11.9845 16.0115 11.9845 21.6233C11.9845 27.2351 16.5337 31.7843 22.1455 31.7843Z" fill="url(#paint1_radial_109_423)"/>
<path fill-rule="evenodd" clip-rule="evenodd" d="M26.9441 14.4815C27.0289 14.3797 27.0629 14.3967 27.1816 14.2949C27.1986 14.3288 27.1986 14.3797 27.2325 14.3797C27.2495 14.4985 27.1138 14.3628 27.1477 14.5154C27.0798 14.4646 27.0629 14.5154 26.9441 14.4815Z" fill="#C7E1DB"/>
<path fill-rule="evenodd" clip-rule="evenodd" d="M14.137 21.6733C14.137 21.6227 14.137 21.5721 14.137 21.5384C14.1707 21.5552 14.2719 21.4877 14.2719 21.589C14.2888 21.7239 14.1876 21.6396 14.137 21.6733Z" fill="#C7E1DB"/>
<path fill-rule="evenodd" clip-rule="evenodd" d="M14.2897 22.0303C14.2897 21.9116 14.3576 21.8777 14.4254 21.8438C14.4254 21.9795 14.5272 21.9964 14.4594 22.1152C14.3745 22.1491 14.3915 21.9795 14.2897 22.0303Z" fill="#C7E1DB"/>
<path fill-rule="evenodd" clip-rule="evenodd" d="M15.1547 17.9929C15.2056 17.959 15.3413 17.8911 15.3413 18.0777C15.2734 18.0777 15.2395 18.0099 15.1547 17.9929Z" fill="#C7E1DB"/>
<path fill-rule="evenodd" clip-rule="evenodd" d="M15.5967 19.8081C15.8342 19.5706 16.2583 19.859 16.377 20.2491C16.1735 20.1982 15.936 19.7911 15.5967 19.8081Z" fill="#C7E1DB"/>
<path fill-rule="evenodd" clip-rule="evenodd" d="M16.6646 21.5552C16.6986 21.3686 16.7664 21.5552 16.8852 21.5044C16.8852 21.4026 16.8682 21.3517 16.8004 21.3686C16.8682 21.2329 16.953 21.4704 16.9869 21.5552C17.0039 21.6909 16.9191 21.6401 16.9361 21.7927C16.8003 21.7588 16.7495 21.6231 16.6646 21.5552Z" fill="#C7E1DB"/>
<path fill-rule="evenodd" clip-rule="evenodd" d="M17.1913 22.0981C17.2082 22.0303 17.2422 22.0133 17.2931 21.9963C17.2931 22.0812 17.327 22.0981 17.327 22.1829C17.2931 22.1829 17.2761 22.1829 17.2422 22.1829C17.2931 22.0981 17.2761 22.0812 17.1913 22.0981Z" fill="#C7E1DB"/>
<path fill-rule="evenodd" clip-rule="evenodd" d="M18.345 26.7281C18.345 26.5762 18.4969 26.5088 18.48 26.7281C18.4463 26.7281 18.3956 26.7281 18.345 26.7281Z" fill="#C7E1DB"/>
<path fill-rule="evenodd" clip-rule="evenodd" d="M18.5136 24.7276C18.5306 24.6258 18.6832 24.6767 18.7002 24.7276C18.6663 24.8633 18.5815 24.6767 18.5136 24.7276Z" fill="#C7E1DB"/>
<path fill-rule="evenodd" clip-rule="evenodd" d="M18.854 26.678C18.8879 26.6101 18.9558 26.5762 19.0406 26.5762C19.0745 26.7458 18.9219 26.6271 18.854 26.678Z" fill="#C7E1DB"/>
<path fill-rule="evenodd" clip-rule="evenodd" d="M19.1921 26.1012C19.0733 26.0164 19.3617 25.9146 19.3278 26.1012C19.2599 26.1521 19.226 25.9655 19.1921 26.1012Z" fill="#C7E1DB"/>
<path fill-rule="evenodd" clip-rule="evenodd" d="M19.3796 26.1014C19.3626 25.9827 19.6171 25.9318 19.6001 26.1014C19.5153 26.0335 19.4983 26.1184 19.3796 26.1014Z" fill="#C7E1DB"/>
<path fill-rule="evenodd" clip-rule="evenodd" d="M20.5832 25.881C20.5832 25.8301 20.6341 25.847 20.6341 25.7792C20.685 25.9149 20.702 25.881 20.7698 25.9149C20.7189 26.0506 20.6002 25.9318 20.5832 25.881Z" fill="#C7E1DB"/>
<path fill-rule="evenodd" clip-rule="evenodd" d="M20.6856 22.0471C20.6686 21.8775 20.8043 21.9792 20.8722 21.9453C20.8552 22.081 20.7535 22.0471 20.6856 22.0471Z" fill="#C7E1DB"/>
<path fill-rule="evenodd" clip-rule="evenodd" d="M16.4271 22.0302C16.3932 22.0302 16.4102 22.115 16.4102 22.1659C16.2405 22.1829 16.1218 21.8775 15.9522 22.0302C15.9691 22.132 16.0879 22.0302 16.1048 22.115C16.037 22.2168 16.003 22.0641 15.8843 22.1659C15.8673 21.9963 15.8843 22.0472 15.8504 21.8945C16.0709 21.8436 16.037 21.9114 16.3253 21.8775C16.2405 22.0472 16.478 21.9454 16.4611 22.0132C16.4441 21.8266 16.5628 21.8606 16.6137 22.0132C16.6816 21.9623 16.5798 21.8945 16.6307 21.8266C16.7155 21.9284 16.936 21.7418 16.9021 21.9623C16.936 21.9623 16.953 21.9793 16.953 22.0132C17.0208 21.9623 16.9021 21.8097 17.0378 21.8266C16.953 21.9793 17.1057 21.9454 17.1396 22.0132C17.0039 22.2846 16.6477 22.098 16.478 22.2168C16.4611 22.1659 16.4441 22.0811 16.4271 22.0302Z" fill="#C7E1DB"/>
<path fill-rule="evenodd" clip-rule="evenodd" d="M19.7869 26.0846C19.8038 25.9828 19.9565 25.9658 20.0244 25.9828C19.9735 26.0676 19.8547 26.0337 19.7869 26.0846Z" fill="#C7E1DB"/>
<path fill-rule="evenodd" clip-rule="evenodd" d="M20.5663 24.8122C20.6171 24.7274 20.7528 24.7952 20.7528 24.6256C20.8377 24.7274 20.6171 24.914 20.5663 24.8122Z" fill="#C7E1DB"/>
<path fill-rule="evenodd" clip-rule="evenodd" d="M11.1169 33.3106C11.1338 33.2428 11.1677 33.2258 11.2186 33.2089C11.2186 33.2937 11.2526 33.3106 11.2526 33.3955C11.2186 33.3955 11.2017 33.3955 11.1677 33.3955C11.2017 33.3276 11.1847 33.2937 11.1169 33.3106Z" fill="#C7E1DB"/>
<path fill-rule="evenodd" clip-rule="evenodd" d="M14.5958 33.2602C14.5788 33.0906 14.7145 33.1924 14.7824 33.1584C14.7824 33.2942 14.6636 33.2602 14.5958 33.2602Z" fill="#C7E1DB"/>
<path fill-rule="evenodd" clip-rule="evenodd" d="M17.7675 18.5867C17.9201 18.5019 18.1406 18.7055 18.2424 18.8581C18.1406 18.9599 17.9541 18.6376 17.7675 18.5867Z" fill="#C7E1DB"/>
<path fill-rule="evenodd" clip-rule="evenodd" d="M17.7675 16.3474C17.7844 16.076 17.9201 16.517 17.9201 16.2456C17.9541 16.2626 17.9371 16.3643 17.9541 16.4322C17.8692 16.3813 17.8353 16.3644 17.7675 16.3474Z" fill="#C7E1DB"/>
<path fill-rule="evenodd" clip-rule="evenodd" d="M17.903 18.0267C17.903 17.925 18.0048 18.0098 18.0387 17.9758C18.0218 18.1116 18.0218 18.0607 18.0387 18.2133C17.9709 18.1794 17.9539 18.0437 17.903 18.0267Z" fill="#C7E1DB"/>
<path fill-rule="evenodd" clip-rule="evenodd" d="M18.0555 17.6876C18.0895 17.5689 18.1573 17.4501 18.1912 17.5858C18.1573 17.6707 18.1234 17.6876 18.0555 17.6876Z" fill="#C7E1DB"/>
<path fill-rule="evenodd" clip-rule="evenodd" d="M18.3276 18.0099C18.3955 17.9081 18.5821 17.7554 18.6499 17.9081C18.599 18.0099 18.5481 17.9251 18.599 18.0947C18.5481 17.9929 18.4294 17.9929 18.3276 18.0099Z" fill="#C7E1DB"/>
<path fill-rule="evenodd" clip-rule="evenodd" d="M19.0738 18.078C19.0229 17.8235 19.5658 17.8574 19.481 18.1628C19.447 18.1628 19.464 18.078 19.447 18.0271C19.3283 18.1288 19.1756 17.9422 19.0738 18.078Z" fill="#C7E1DB"/>
<path fill-rule="evenodd" clip-rule="evenodd" d="M20.4988 17.6708C20.5158 17.569 20.6345 17.6538 20.6854 17.6199C20.6515 17.7386 20.5836 17.7217 20.4988 17.6708Z" fill="#C7E1DB"/>
<path fill-rule="evenodd" clip-rule="evenodd" d="M22.4152 17.4326C22.4321 17.3314 22.4827 17.2639 22.567 17.2808C22.5501 17.3989 22.4658 17.3989 22.4152 17.4326Z" fill="#C7E1DB"/>
<path fill-rule="evenodd" clip-rule="evenodd" d="M24.0272 17.2466C24.0611 17.077 24.2477 17.2636 24.3665 17.2297C24.3835 17.3484 24.2138 17.1957 24.2647 17.3654C24.1969 17.2127 24.1629 17.2975 24.0272 17.2466Z" fill="#C7E1DB"/>
<path fill-rule="evenodd" clip-rule="evenodd" d="M18.0219 16.3305C18.005 16.2287 18.0389 16.2118 18.0389 16.1439C18.1067 16.1609 18.0898 16.4662 18.2085 16.3305C18.2933 16.3814 18.1576 16.4153 18.1576 16.4662C18.1067 16.4323 18.0898 16.3305 18.0219 16.3305Z" fill="#C7E1DB"/>
<path fill-rule="evenodd" clip-rule="evenodd" d="M18.0902 18.1121C18.1241 17.9085 18.2598 18.1121 18.3277 18.146C18.3107 18.1799 18.2938 18.2308 18.3107 18.2817C18.4125 18.163 18.3786 18.3835 18.4634 18.4174C18.4973 18.4005 18.4804 18.3326 18.5143 18.3156C18.5991 18.2987 18.633 18.3496 18.6161 18.5022C18.4804 18.4344 18.4973 18.4514 18.3447 18.5022C18.3447 18.4514 18.3447 18.4174 18.3447 18.3665C18.2768 18.3835 18.2429 18.3665 18.209 18.3156C18.2259 18.4344 18.2429 18.4853 18.192 18.5531C18.175 18.6719 18.3107 18.5192 18.2768 18.6888C18.2259 18.638 18.175 18.604 18.1241 18.5531C18.2429 18.4853 18.175 18.4005 18.1411 18.2308C18.192 18.3157 18.209 18.2308 18.2768 18.2308C18.2938 18.0612 18.175 18.1121 18.0902 18.1121Z" fill="#C7E1DB"/>
<path fill-rule="evenodd" clip-rule="evenodd" d="M18.1741 16.1439C18.242 16.1948 18.259 16.2457 18.3268 16.1778C18.3268 16.2627 18.3438 16.2966 18.3777 16.3136C18.3777 16.3305 18.1741 16.2966 18.1741 16.1439Z" fill="#C7E1DB"/>
<path fill-rule="evenodd" clip-rule="evenodd" d="M18.5817 18.2812C18.6665 18.1116 18.7174 18.366 18.7514 18.4678C18.7853 18.4339 18.7853 18.366 18.8362 18.366C18.7683 18.6883 18.6835 18.3151 18.5817 18.2812Z" fill="#C7E1DB"/>
<path fill-rule="evenodd" clip-rule="evenodd" d="M21.3982 15.1599C21.4152 15.092 21.4491 15.0751 21.5 15.0581C21.5 15.1429 21.5339 15.1599 21.5339 15.2447C21.5 15.2447 21.483 15.2447 21.4491 15.2447C21.483 15.1768 21.466 15.1429 21.3982 15.1599Z" fill="#C7E1DB"/>
<path fill-rule="evenodd" clip-rule="evenodd" d="M22.5515 19.7903C22.5515 19.6385 22.7033 19.571 22.6864 19.7903C22.6358 19.7903 22.6021 19.7903 22.5515 19.7903Z" fill="#C7E1DB"/>
<path fill-rule="evenodd" clip-rule="evenodd" d="M22.7198 17.7895C22.7368 17.6877 22.8894 17.7386 22.9064 17.7895C22.8725 17.9252 22.7876 17.7555 22.7198 17.7895Z" fill="#C7E1DB"/>
<path fill-rule="evenodd" clip-rule="evenodd" d="M23.0595 19.74C23.0934 19.6721 23.1613 19.6382 23.2461 19.6382C23.2631 19.8248 23.1104 19.706 23.0595 19.74Z" fill="#C7E1DB"/>
<path fill-rule="evenodd" clip-rule="evenodd" d="M23.4004 19.1635C23.2817 19.0787 23.57 18.9769 23.5361 19.1635C23.4683 19.2313 23.4174 19.0278 23.4004 19.1635Z" fill="#C7E1DB"/>
<path fill-rule="evenodd" clip-rule="evenodd" d="M23.5853 19.1633C23.5684 19.0445 23.8228 18.9937 23.8059 19.1633C23.7211 19.0954 23.7041 19.1803 23.5853 19.1633Z" fill="#C7E1DB"/>
<path fill-rule="evenodd" clip-rule="evenodd" d="M24.7399 21.5036C24.7736 21.4361 24.8242 21.4192 24.8917 21.4023C24.9086 21.5542 24.7905 21.5879 24.7399 21.5036Z" fill="#C7E1DB"/>
<path fill-rule="evenodd" clip-rule="evenodd" d="M24.7736 18.9427C24.7736 18.8918 24.8245 18.9088 24.8245 18.8409C24.8754 18.9766 24.8923 18.9427 24.9602 18.9766C24.9263 19.1124 24.8075 18.9936 24.7736 18.9427Z" fill="#C7E1DB"/>
<path fill-rule="evenodd" clip-rule="evenodd" d="M24.8746 15.1259C24.8576 14.9563 24.9933 15.0581 25.0612 15.0242C25.0612 15.1599 24.9424 15.109 24.8746 15.1259Z" fill="#C7E1DB"/>
<path fill-rule="evenodd" clip-rule="evenodd" d="M28.0977 17.0939C28.0638 17.0939 28.0808 17.1787 28.0808 17.2296C27.9112 17.2466 27.7924 16.9412 27.6228 17.0939C27.6397 17.1957 27.7585 17.0939 27.7754 17.1787C27.7076 17.2805 27.6737 17.1278 27.5549 17.2296C27.538 17.06 27.5549 17.1109 27.521 16.9582C27.7415 16.9073 27.7076 16.9752 27.996 16.9412C27.9112 17.1109 28.1486 17.0091 28.1317 17.0769C28.1147 16.8903 28.2335 16.9243 28.2843 17.0769C28.3522 17.0261 28.2504 16.9582 28.3013 16.8903C28.3861 16.9921 28.6066 16.8055 28.5727 17.0261C28.6066 17.0261 28.6236 17.043 28.6236 17.0769C28.6915 17.0261 28.5727 16.8734 28.7084 16.8903C28.6236 17.043 28.7763 17.0091 28.8102 17.0769C28.6745 17.3484 28.3183 17.1618 28.1486 17.2805C28.1486 17.2466 28.1317 17.1618 28.0977 17.0939Z" fill="#C7E1DB"/>
<path fill-rule="evenodd" clip-rule="evenodd" d="M23.9759 19.1463C23.9928 19.0446 24.1455 19.0276 24.2133 19.0445C24.1625 19.1294 24.0607 19.1124 23.9759 19.1463Z" fill="#C7E1DB"/>
<path fill-rule="evenodd" clip-rule="evenodd" d="M24.7736 17.8741C24.8245 17.7893 24.9602 17.8571 24.9602 17.6875C25.028 17.7893 24.8245 17.9759 24.7736 17.8741Z" fill="#C7E1DB"/>
<path fill-rule="evenodd" clip-rule="evenodd" d="M21.5507 16.0932C21.6355 16.0423 21.7373 16.1441 21.8052 16.2289C21.7543 16.2968 21.6525 16.1272 21.5507 16.0932Z" fill="#C7E1DB"/>
<path fill-rule="evenodd" clip-rule="evenodd" d="M21.5668 14.9395C21.5836 14.8046 21.6511 15.0239 21.6511 14.8889C21.668 14.8889 21.668 14.9564 21.668 14.9901C21.6005 14.9564 21.6005 14.9564 21.5668 14.9395Z" fill="#C7E1DB"/>
<path fill-rule="evenodd" clip-rule="evenodd" d="M21.6191 15.8045C21.6191 15.7539 21.6697 15.7876 21.6866 15.7708C21.6697 15.8382 21.6697 15.8214 21.6866 15.8888C21.6697 15.8888 21.6528 15.8214 21.6191 15.8045Z" fill="#C7E1DB"/>
<path fill-rule="evenodd" clip-rule="evenodd" d="M21.7025 15.6347C21.7194 15.5672 21.7532 15.5166 21.77 15.5841C21.7532 15.6178 21.7363 15.6347 21.7025 15.6347Z" fill="#C7E1DB"/>
<path fill-rule="evenodd" clip-rule="evenodd" d="M21.8381 15.8051C21.872 15.7542 21.9738 15.6694 22.0077 15.7542C21.9908 15.8051 21.9568 15.7542 21.9738 15.856C21.9568 15.7881 21.906 15.7881 21.8381 15.8051Z" fill="#C7E1DB"/>
<path fill-rule="evenodd" clip-rule="evenodd" d="M22.2295 15.8385C22.2125 15.7028 22.4839 15.7198 22.4331 15.8894C22.4161 15.8894 22.4161 15.8385 22.4161 15.8216C22.3652 15.8555 22.2804 15.7707 22.2295 15.8385Z" fill="#C7E1DB"/>
<path fill-rule="evenodd" clip-rule="evenodd" d="M21.6863 14.9398C21.6863 14.8889 21.7032 14.8719 21.7032 14.838C21.7372 14.855 21.7372 15.0076 21.7881 14.9398C21.8389 14.9568 21.7541 14.9737 21.7541 15.0076C21.7372 14.9737 21.7202 14.9228 21.6863 14.9398Z" fill="#C7E1DB"/>
<path fill-rule="evenodd" clip-rule="evenodd" d="M21.7195 15.8557C21.7365 15.7539 21.8043 15.8557 21.8383 15.8726C21.8383 15.8896 21.8213 15.9066 21.8213 15.9405C21.8722 15.8896 21.8552 15.9914 21.9061 16.0083C21.9231 16.0083 21.9231 15.9574 21.94 15.9574C21.9909 15.9405 22.0079 15.9744 21.9909 16.0592C21.9231 16.0253 21.9231 16.0253 21.8552 16.0592C21.8552 16.0423 21.8552 16.0083 21.8552 15.9914C21.8213 15.9914 21.8043 15.9914 21.7874 15.9744C21.7874 16.0423 21.8043 16.0592 21.7704 16.0932C21.7704 16.144 21.8383 16.0762 21.8043 16.161C21.7704 16.144 21.7534 16.1101 21.7195 16.0932C21.7874 16.0592 21.7365 16.0083 21.7365 15.9235C21.7704 15.9744 21.7704 15.9235 21.8043 15.9235C21.8213 15.8217 21.7704 15.8557 21.7195 15.8557Z" fill="#C7E1DB"/>
<path fill-rule="evenodd" clip-rule="evenodd" d="M21.7709 14.838C21.8046 14.8718 21.8046 14.8886 21.8553 14.8549C21.8553 14.8886 21.8721 14.9224 21.889 14.9224C21.8721 14.9392 21.7709 14.9224 21.7709 14.838Z" fill="#C7E1DB"/>
<path fill-rule="evenodd" clip-rule="evenodd" d="M21.9753 15.9401C22.009 15.8557 22.0428 15.9907 22.0596 16.0413C22.0765 16.0244 22.0765 15.9907 22.0934 15.9907C22.0765 16.1425 22.0259 15.9569 21.9753 15.9401Z" fill="#C7E1DB"/>
<path fill-rule="evenodd" clip-rule="evenodd" d="M20.0063 18.4848C20.159 18.4 20.3795 18.6035 20.4813 18.7562C20.3626 18.875 20.1929 18.5357 20.0063 18.4848Z" fill="#C7E1DB"/>
<path fill-rule="evenodd" clip-rule="evenodd" d="M27.488 18.2645C27.5049 17.9931 27.6406 18.4341 27.6406 18.1627C27.6746 18.1797 27.6576 18.2815 27.6746 18.3493C27.5898 18.2984 27.5558 18.2815 27.488 18.2645Z" fill="#C7E1DB"/>
<path fill-rule="evenodd" clip-rule="evenodd" d="M20.1268 17.9253C20.1268 17.8235 20.2286 17.9083 20.2625 17.8744C20.2455 18.0101 20.2455 17.9592 20.2625 18.1119C20.2116 18.078 20.1947 17.9592 20.1268 17.9253Z" fill="#C7E1DB"/>
<path fill-rule="evenodd" clip-rule="evenodd" d="M20.2951 17.603C20.3291 17.4843 20.3969 17.3655 20.4308 17.5012C20.3969 17.5691 20.363 17.603 20.2951 17.603Z" fill="#C7E1DB"/>
<path fill-rule="evenodd" clip-rule="evenodd" d="M20.5663 17.9253C20.6341 17.8235 20.8207 17.6708 20.8886 17.8235C20.8377 17.9253 20.7868 17.8405 20.8377 18.0101C20.7868 17.8914 20.668 17.9083 20.5663 17.9253Z" fill="#C7E1DB"/>
<path fill-rule="evenodd" clip-rule="evenodd" d="M21.3137 17.9926C21.2628 17.7382 21.8056 17.7721 21.7208 18.0774C21.6869 18.0774 21.7038 17.9926 21.6869 17.9417C21.5681 18.0265 21.4155 17.8569 21.3137 17.9926Z" fill="#C7E1DB"/>
<path fill-rule="evenodd" clip-rule="evenodd" d="M19.0065 16.9922C19.0235 16.8904 19.1422 16.9752 19.1931 16.9413C19.1762 17.06 19.0913 17.0431 19.0065 16.9922Z" fill="#C7E1DB"/>
<path fill-rule="evenodd" clip-rule="evenodd" d="M20.9225 16.7537C20.9393 16.6524 20.9899 16.585 21.0743 16.6018C21.0743 16.7199 20.9899 16.7199 20.9225 16.7537Z" fill="#C7E1DB"/>
<path fill-rule="evenodd" clip-rule="evenodd" d="M22.5515 16.568C22.5854 16.3984 22.772 16.585 22.8907 16.5511C22.9077 16.6698 22.738 16.5172 22.7889 16.6868C22.7211 16.5341 22.6702 16.6189 22.5515 16.568Z" fill="#C7E1DB"/>
<path fill-rule="evenodd" clip-rule="evenodd" d="M27.7427 18.2473C27.7257 18.1455 27.7597 18.1285 27.7597 18.0607C27.8275 18.0776 27.8105 18.383 27.9293 18.2473C28.0141 18.2982 27.8784 18.3321 27.8784 18.383C27.8275 18.3321 27.8105 18.2473 27.7427 18.2473Z" fill="#C7E1DB"/>
<path fill-rule="evenodd" clip-rule="evenodd" d="M20.3302 18.01C20.3642 17.8234 20.4999 18.01 20.5677 18.0439C20.5508 18.0778 20.5338 18.1287 20.5508 18.1796C20.6525 18.0608 20.6186 18.2814 20.7204 18.3153C20.7543 18.2983 20.7374 18.2135 20.7713 18.2135C20.8561 18.1965 20.89 18.2474 20.8731 18.4001C20.7374 18.3323 20.7543 18.3492 20.6017 18.4001C20.6017 18.3492 20.6017 18.3153 20.6017 18.2644C20.5338 18.2814 20.4999 18.2644 20.4659 18.2135C20.4829 18.3323 20.4999 18.3831 20.449 18.451C20.432 18.5697 20.5677 18.4171 20.5338 18.5867C20.4829 18.5358 20.432 18.5019 20.3811 18.451C20.4999 18.3831 20.432 18.2983 20.3981 18.1287C20.449 18.2135 20.4659 18.1287 20.5338 18.1287C20.5168 17.9591 20.415 18.0269 20.3302 18.01Z" fill="#C7E1DB"/>
<path fill-rule="evenodd" clip-rule="evenodd" d="M27.8956 18.0607C27.9634 18.1116 27.9804 18.1624 28.0482 18.0946C28.0482 18.1794 28.0652 18.2133 28.0991 18.2303C28.0991 18.2473 27.8956 18.2133 27.8956 18.0607Z" fill="#C7E1DB"/>
<path fill-rule="evenodd" clip-rule="evenodd" d="M20.8222 18.1968C20.9071 18.0272 20.9579 18.2817 20.9919 18.3834C21.0258 18.3495 21.0258 18.2817 21.0767 18.2817C21.0088 18.604 20.924 18.2138 20.8222 18.1968Z" fill="#C7E1DB"/>
<path fill-rule="evenodd" clip-rule="evenodd" d="M27.7591 20.7413C27.8439 20.4869 27.9966 20.5886 28.1492 20.6395C28.0814 20.8601 27.8778 20.6395 27.7591 20.7413Z" fill="#C7E1DB"/>
<path fill-rule="evenodd" clip-rule="evenodd" d="M30.084 20.9618C30.084 20.877 30.2876 20.7752 30.2706 20.9618C30.1858 20.894 30.1688 20.9449 30.084 20.9618Z" fill="#C7E1DB"/>
<path fill-rule="evenodd" clip-rule="evenodd" d="M30.3712 20.9108C30.5917 20.7243 30.5747 20.8091 30.8801 20.7582C30.7783 20.9448 30.5578 20.8939 30.3712 20.9108Z" fill="#C7E1DB"/>
<path fill-rule="evenodd" clip-rule="evenodd" d="M31.185 20.639C31.2867 20.8256 31.4394 20.7239 31.6091 20.7239C31.5242 20.8765 31.2359 21.0122 31.185 20.639Z" fill="#C7E1DB"/>
<path fill-rule="evenodd" clip-rule="evenodd" d="M31.949 18.9938C31.949 18.7902 32.1186 18.7902 32.2204 18.8411C32.1695 19.0277 32.0338 18.8242 31.949 18.9938Z" fill="#C7E1DB"/>
<path fill-rule="evenodd" clip-rule="evenodd" d="M32.0339 20.1642C32.0508 20.1133 32.1017 20.0963 32.0678 20.0624C32.1017 19.9437 32.1865 20.0963 32.1696 20.1981C32.1526 20.232 32.1017 20.249 32.0678 20.249C32.0678 20.1981 32.0678 20.1642 32.0339 20.1642Z" fill="#C7E1DB"/>
<path fill-rule="evenodd" clip-rule="evenodd" d="M32.4742 18.417C32.3894 18.3491 32.6269 18.3491 32.6269 18.417C32.6269 18.4509 32.6099 18.4679 32.5929 18.4679C32.576 18.4679 32.576 18.4848 32.559 18.5188C32.5421 18.4848 32.559 18.3661 32.4742 18.417Z" fill="#C7E1DB"/>
<path fill-rule="evenodd" clip-rule="evenodd" d="M33.1368 15.788C33.1706 15.788 33.2043 15.788 33.2381 15.788C33.2718 15.9567 33.12 15.9735 33.1368 15.788Z" fill="#C7E1DB"/>
<path fill-rule="evenodd" clip-rule="evenodd" d="M33.6796 15.6861C33.7305 15.4316 33.8662 15.737 33.968 15.6861C33.9171 15.7709 33.7305 15.737 33.6796 15.6861Z" fill="#C7E1DB"/>
<path fill-rule="evenodd" clip-rule="evenodd" d="M24.0437 15.9226C24.0268 15.737 24.1786 15.8551 24.1786 15.9226C24.1449 16.0576 24.1111 15.8551 24.0437 15.9226Z" fill="#C7E1DB"/>
<path fill-rule="evenodd" clip-rule="evenodd" d="M24.638 19.6888C24.6211 19.5201 24.8067 19.5876 24.7729 19.7394C24.7392 19.6888 24.6886 19.672 24.638 19.6888Z" fill="#C7E1DB"/>
<path fill-rule="evenodd" clip-rule="evenodd" d="M25.1475 17.5181C25.1814 17.4502 25.2832 17.3824 25.3341 17.4672C25.3171 17.569 25.1984 17.4842 25.1475 17.5181Z" fill="#C7E1DB"/>
<path fill-rule="evenodd" clip-rule="evenodd" d="M26.7755 22.0981C27.1318 21.9624 27.488 22.115 27.8951 22.115C27.5219 22.607 27.1487 21.9454 26.7755 22.0981Z" fill="#C7E1DB"/>
<path fill-rule="evenodd" clip-rule="evenodd" d="M27.5209 20.5209C27.5209 20.6566 27.3512 20.6396 27.3004 20.5717C27.3173 20.5039 27.3512 20.5039 27.3512 20.436C27.3682 20.5378 27.4021 20.5887 27.5209 20.5209Z" fill="#C7E1DB"/>
<path fill-rule="evenodd" clip-rule="evenodd" d="M30.8973 20.8427C30.9313 20.7919 31.1348 20.6392 31.1348 20.8427C31.033 20.7919 31.0161 20.8258 30.8973 20.8427Z" fill="#C7E1DB"/>
<path fill-rule="evenodd" clip-rule="evenodd" d="M25.9955 22.7425C26.0294 22.6747 26.3008 22.8104 26.3687 22.6917C26.4365 22.8443 26.0464 22.8104 25.9955 22.7425Z" fill="#C7E1DB"/>
<path fill-rule="evenodd" clip-rule="evenodd" d="M33.0858 18.5017C33.1367 18.4338 33.1536 18.349 33.2385 18.366C33.2385 18.4847 33.3233 18.4677 33.3233 18.6035C33.2554 18.4847 33.2045 18.4338 33.0858 18.5017Z" fill="#C7E1DB"/>
<path fill-rule="evenodd" clip-rule="evenodd" d="M21.3472 21.8269C21.2454 21.8608 21.2793 21.6573 21.1945 21.6912C21.2115 21.5894 21.3641 21.6403 21.3302 21.776C21.3641 21.759 21.3811 21.7081 21.3811 21.6403C21.4829 21.6912 21.398 21.776 21.3472 21.8269Z" fill="#C7E1DB"/>
<path fill-rule="evenodd" clip-rule="evenodd" d="M24.1965 18.9431C24.1965 18.8073 24.2474 18.7734 24.2983 18.7056C24.6884 18.8243 24.2644 18.6886 24.1965 18.9431Z" fill="#C7E1DB"/>
<path fill-rule="evenodd" clip-rule="evenodd" d="M24.3159 17.5859C24.2819 17.5689 24.3328 17.518 24.3159 17.4502C24.4007 17.5011 24.5025 17.535 24.5873 17.5859C24.5194 17.7386 24.3837 17.4163 24.3159 17.5859Z" fill="#C7E1DB"/>
<path fill-rule="evenodd" clip-rule="evenodd" d="M24.3154 14.7018C24.2814 14.583 24.5189 14.7696 24.6037 14.7357C24.5359 14.8714 24.4002 14.7018 24.3154 14.7018Z" fill="#C7E1DB"/>
<path fill-rule="evenodd" clip-rule="evenodd" d="M24.7227 17.959C24.7566 17.8742 24.8754 18.0438 24.9602 17.9929C24.9771 18.1286 24.8075 17.959 24.8245 18.0947C24.7905 18.0438 24.7736 17.959 24.7227 17.959Z" fill="#C7E1DB"/>
<path fill-rule="evenodd" clip-rule="evenodd" d="M26.9795 19.8927C27.0473 19.8588 27.1491 19.8418 27.2678 19.8927C27.2 19.9266 27.0643 19.9606 26.9795 19.8927Z" fill="#C7E1DB"/>
<path fill-rule="evenodd" clip-rule="evenodd" d="M26.0115 16.9075C26.1642 16.8227 26.3847 17.0263 26.4865 17.1789C26.3847 17.2977 26.1981 16.9584 26.0115 16.9075Z" fill="#C7E1DB"/>
<path fill-rule="evenodd" clip-rule="evenodd" d="M26.0285 14.6681C26.0454 14.3967 26.1811 14.8377 26.1811 14.5663C26.2151 14.5832 26.1981 14.685 26.2151 14.7529C26.1133 14.702 26.0963 14.702 26.0285 14.6681Z" fill="#C7E1DB"/>
<path fill-rule="evenodd" clip-rule="evenodd" d="M26.1473 16.3473C26.1473 16.2455 26.2491 16.3303 26.283 16.2964C26.2661 16.4321 26.2661 16.3812 26.283 16.5339C26.2152 16.5 26.1982 16.3812 26.1473 16.3473Z" fill="#C7E1DB"/>
<path fill-rule="evenodd" clip-rule="evenodd" d="M26.2996 16.0081C26.3335 15.8893 26.4014 15.7706 26.4353 15.9063C26.4183 15.9911 26.3674 16.025 26.2996 16.0081Z" fill="#C7E1DB"/>
<path fill-rule="evenodd" clip-rule="evenodd" d="M26.5717 16.3308C26.6395 16.229 26.8261 16.0933 26.894 16.229C26.8431 16.3308 26.7922 16.2459 26.8431 16.4156C26.7922 16.3138 26.6734 16.3308 26.5717 16.3308Z" fill="#C7E1DB"/>
<path fill-rule="evenodd" clip-rule="evenodd" d="M27.3174 16.4155C27.2665 16.161 27.8094 16.195 27.7245 16.5003C27.6906 16.5003 27.7076 16.4155 27.6906 16.3646C27.5888 16.4494 27.4192 16.2628 27.3174 16.4155Z" fill="#C7E1DB"/>
<path fill-rule="evenodd" clip-rule="evenodd" d="M26.2662 14.668C26.2493 14.5663 26.2832 14.5493 26.2832 14.4814C26.351 14.4984 26.3341 14.8037 26.4528 14.668C26.5376 14.7189 26.4019 14.7529 26.4019 14.8037C26.351 14.7529 26.3341 14.6511 26.2662 14.668Z" fill="#C7E1DB"/>
<path fill-rule="evenodd" clip-rule="evenodd" d="M26.3352 16.4326C26.3691 16.246 26.5048 16.4326 26.5727 16.4665C26.5557 16.5004 26.5387 16.5513 26.5557 16.6022C26.6575 16.4835 26.6236 16.704 26.7084 16.7379C26.7423 16.7209 26.7253 16.6361 26.7593 16.6361C26.8441 16.6192 26.878 16.67 26.861 16.8227C26.7253 16.7549 26.7423 16.7718 26.5896 16.8227C26.5896 16.7718 26.5896 16.7379 26.5896 16.687C26.5218 16.704 26.4878 16.687 26.4539 16.6361C26.4709 16.7549 26.4878 16.8058 26.437 16.8736C26.42 16.9924 26.5557 16.8397 26.5218 17.0093C26.4709 16.9584 26.42 16.9245 26.3691 16.8736C26.4878 16.8058 26.42 16.7209 26.3861 16.5513C26.437 16.6361 26.4539 16.5513 26.5218 16.5513C26.5387 16.3817 26.42 16.4326 26.3352 16.4326Z" fill="#C7E1DB"/>
<path fill-rule="evenodd" clip-rule="evenodd" d="M26.4193 14.4814C26.4872 14.5323 26.5042 14.5832 26.572 14.5154C26.572 14.6002 26.589 14.6341 26.6229 14.6511C26.6229 14.668 26.4193 14.6341 26.4193 14.4814Z" fill="#C7E1DB"/>
<path fill-rule="evenodd" clip-rule="evenodd" d="M26.8427 16.6018C26.9276 16.4321 26.9785 16.6866 27.0124 16.7883C27.0463 16.7544 27.0463 16.6866 27.0972 16.6866C27.0124 17.0089 26.9276 16.6357 26.8427 16.6018Z" fill="#C7E1DB"/>
<path fill-rule="evenodd" clip-rule="evenodd" d="M30.8636 15.8723C30.9145 16.0589 30.7279 16.2794 30.5752 16.3812C30.4904 16.2285 30.7957 16.0759 30.8636 15.8723Z" fill="#C7E1DB"/>
<path fill-rule="evenodd" clip-rule="evenodd" d="M32.7983 16.161C33.0358 16.2119 32.6456 16.3137 32.8662 16.3476C32.8492 16.3815 32.7644 16.3646 32.6965 16.3646C32.7644 16.2458 32.7644 16.2289 32.7983 16.161Z" fill="#C7E1DB"/>
<path fill-rule="evenodd" clip-rule="evenodd" d="M31.3383 16.0762C31.4231 16.0762 31.3553 16.1949 31.3723 16.2288C31.2535 16.1949 31.3044 16.1949 31.1687 16.1949C31.1857 16.144 31.3044 16.144 31.3383 16.0762Z" fill="#C7E1DB"/>
<path fill-rule="evenodd" clip-rule="evenodd" d="M31.5935 16.2966C31.6953 16.3475 31.7801 16.4493 31.6614 16.4663C31.6105 16.4323 31.5935 16.3814 31.5935 16.2966Z" fill="#C7E1DB"/>
<path fill-rule="evenodd" clip-rule="evenodd" d="M31.2867 16.568C31.3716 16.6698 31.4733 16.8903 31.3376 16.9412C31.2528 16.8733 31.3376 16.8224 31.185 16.8564C31.2867 16.8224 31.2867 16.7037 31.2867 16.568Z" fill="#C7E1DB"/>
<path fill-rule="evenodd" clip-rule="evenodd" d="M31.1351 17.4163C31.3557 17.3993 31.2708 17.993 31.0164 17.8573C31.0334 17.8234 31.0842 17.8403 31.1351 17.8403C31.0673 17.7046 31.2369 17.552 31.1351 17.4163Z" fill="#C7E1DB"/>
<path fill-rule="evenodd" clip-rule="evenodd" d="M32.7802 16.4323C32.865 16.4323 32.882 16.4662 32.9328 16.4831C32.8989 16.551 32.6445 16.5001 32.7632 16.6358C32.7123 16.7206 32.6954 16.568 32.6445 16.551C32.6954 16.5171 32.7802 16.5171 32.7802 16.4323Z" fill="#C7E1DB"/>
<path fill-rule="evenodd" clip-rule="evenodd" d="M31.2367 16.2795C31.4064 16.3474 31.2028 16.4831 31.1689 16.5509C31.135 16.534 31.101 16.517 31.0501 16.5001C31.135 16.6358 30.9484 16.5679 30.9144 16.6697C30.9144 16.7036 30.9992 16.7036 30.9823 16.7375C30.9992 16.8393 30.9314 16.8733 30.8126 16.8393C30.8975 16.6867 30.8805 16.7036 30.8466 16.534C30.8805 16.534 30.9314 16.5509 30.9653 16.5509C30.9653 16.4831 30.9823 16.4322 31.0162 16.3983C30.9144 16.3983 30.8635 16.4152 30.8126 16.3474C30.7109 16.3304 30.8296 16.4831 30.6769 16.4152C30.7278 16.3644 30.7787 16.3135 30.8126 16.2456C30.8466 16.3813 30.9484 16.3135 31.0841 16.3135C30.9992 16.3644 31.0671 16.3813 31.0671 16.4661C31.2537 16.517 31.2198 16.3813 31.2367 16.2795Z" fill="#C7E1DB"/>
<path fill-rule="evenodd" clip-rule="evenodd" d="M32.9144 16.6358C32.8636 16.7036 32.8127 16.7206 32.8636 16.8054C32.7957 16.7884 32.7618 16.8223 32.7448 16.8563C32.7279 16.8563 32.7787 16.6188 32.9144 16.6358Z" fill="#C7E1DB"/>
<path fill-rule="evenodd" clip-rule="evenodd" d="M31.0157 16.8395C31.1514 16.9582 30.9139 16.9921 30.8461 16.9921C30.863 17.0261 30.9309 17.043 30.9139 17.0939C30.6425 16.9921 30.9818 16.9413 31.0157 16.8395Z" fill="#C7E1DB"/>
<path fill-rule="evenodd" clip-rule="evenodd" d="M26.9267 14.4306C26.774 14.5154 26.6892 14.4645 26.5365 14.5324C26.5535 14.4815 26.5705 14.4306 26.6213 14.4306C26.6044 14.3967 26.5874 14.3628 26.5874 14.2949C26.7401 14.4306 26.8588 14.3458 26.9776 14.244C26.9267 14.2949 26.7401 14.4476 26.9267 14.4306Z" fill="#C7E1DB"/>
<path fill-rule="evenodd" clip-rule="evenodd" d="M27.2839 14.3287C27.233 14.21 27.3857 14.3796 27.3687 14.5153C27.3517 14.4814 27.3008 14.4644 27.2669 14.4644C27.2499 14.4135 27.3687 14.3626 27.2839 14.3287Z" fill="#C7E1DB"/>
<path fill-rule="evenodd" clip-rule="evenodd" d="M10.8127 18.9259C10.8636 18.8241 10.9654 18.7902 10.9484 19.0107C10.8636 19.0616 10.8806 18.892 10.8127 18.9259Z" fill="#C7E1DB"/>
<path fill-rule="evenodd" clip-rule="evenodd" d="M27.0797 16.7717C27.2324 16.6869 27.4529 16.8904 27.5547 17.0431C27.4359 17.1449 27.2663 16.8226 27.0797 16.7717Z" fill="#C7E1DB"/>
<path fill-rule="evenodd" clip-rule="evenodd" d="M27.0797 14.5323C27.0966 14.2609 27.2324 14.702 27.2324 14.4305C27.2663 14.4475 27.2493 14.5493 27.2663 14.6171C27.1645 14.5662 27.1475 14.5493 27.0797 14.5323Z" fill="#C7E1DB"/>
<path fill-rule="evenodd" clip-rule="evenodd" d="M27.1992 16.212C27.1992 16.1103 27.301 16.1951 27.3349 16.1612C27.3179 16.2969 27.3179 16.246 27.3349 16.3986C27.267 16.3647 27.267 16.229 27.1992 16.212Z" fill="#C7E1DB"/>
<path fill-rule="evenodd" clip-rule="evenodd" d="M27.3524 15.8728C27.3863 15.7541 27.4542 15.6353 27.4881 15.771C27.4712 15.8389 27.4203 15.8728 27.3524 15.8728Z" fill="#C7E1DB"/>
<path fill-rule="evenodd" clip-rule="evenodd" d="M27.6238 16.1951C27.6916 16.0933 27.8782 15.9406 27.9461 16.0933C27.8952 16.1951 27.8443 16.1102 27.8952 16.2799C27.8443 16.1781 27.7425 16.1781 27.6238 16.1951Z" fill="#C7E1DB"/>
<path fill-rule="evenodd" clip-rule="evenodd" d="M20.8898 14.2609C20.8389 14.0065 21.3817 14.0404 21.2969 14.3458C21.263 14.3458 21.2799 14.2609 21.263 14.21C21.1612 14.2949 21.0085 14.1083 20.8898 14.2609Z" fill="#C7E1DB"/>
<path fill-rule="evenodd" clip-rule="evenodd" d="M27.3188 14.5155C27.3018 14.4137 27.3358 14.3967 27.3358 14.3289C27.4036 14.3458 27.3867 14.6512 27.5054 14.5155C27.5902 14.5663 27.4545 14.6003 27.4545 14.6512C27.4206 14.6003 27.4036 14.5155 27.3188 14.5155Z" fill="#C7E1DB"/>
<path fill-rule="evenodd" clip-rule="evenodd" d="M27.3854 16.2967C27.4194 16.0931 27.5551 16.2967 27.6229 16.3306C27.606 16.3645 27.589 16.4154 27.606 16.4663C27.7077 16.3475 27.6738 16.5681 27.7586 16.602C27.7926 16.585 27.7756 16.5002 27.8095 16.5002C27.8943 16.4833 27.9283 16.5341 27.9113 16.6868C27.7756 16.619 27.7926 16.6359 27.6399 16.6868C27.6399 16.6359 27.6399 16.602 27.6399 16.5511C27.572 16.5681 27.5381 16.5511 27.5042 16.5002C27.5211 16.619 27.5381 16.6699 27.4872 16.7377C27.4702 16.8564 27.606 16.7038 27.572 16.8734C27.5211 16.8225 27.4702 16.7886 27.4194 16.7377C27.5381 16.6699 27.4703 16.585 27.4363 16.4154C27.4872 16.5002 27.5042 16.4154 27.572 16.4154C27.589 16.2458 27.4703 16.2967 27.3854 16.2967Z" fill="#C7E1DB"/>
<path fill-rule="evenodd" clip-rule="evenodd" d="M27.4713 14.3289C27.5391 14.3797 27.5561 14.4306 27.6239 14.3628C27.6239 14.4476 27.6409 14.4815 27.6748 14.4985C27.6918 14.5155 27.4882 14.4815 27.4713 14.3289Z" fill="#C7E1DB"/>
<path fill-rule="evenodd" clip-rule="evenodd" d="M27.8956 16.4665C27.9804 16.2969 28.0313 16.5513 28.0652 16.6531C28.0991 16.6192 28.0991 16.5513 28.15 16.5513C28.0822 16.8736 27.9973 16.5004 27.8956 16.4665Z" fill="#C7E1DB"/>
<path fill-rule="evenodd" clip-rule="evenodd" d="M17.9535 17.7043C18.0383 17.6025 18.0722 17.6195 18.191 17.5177C18.2079 17.5516 18.2079 17.6025 18.2419 17.6025C18.2588 17.7213 18.1231 17.5856 18.157 17.7382C18.0892 17.6873 18.0722 17.7382 17.9535 17.7043Z" fill="#C7E1DB"/>
<path fill-rule="evenodd" clip-rule="evenodd" d="M17.9209 17.654C17.7682 17.7388 17.6834 17.6879 17.5308 17.7558C17.5477 17.7049 17.5647 17.654 17.6156 17.654C17.5986 17.6201 17.5816 17.5861 17.5816 17.5183C17.7343 17.654 17.8531 17.5692 17.9718 17.4674C17.9379 17.5013 17.7513 17.671 17.9209 17.654Z" fill="#C7E1DB"/>
<path fill-rule="evenodd" clip-rule="evenodd" d="M18.2939 17.5522C18.243 17.4335 18.3957 17.6031 18.3787 17.7388C18.3618 17.7049 18.3109 17.6879 18.277 17.6879C18.26 17.6201 18.3787 17.5692 18.2939 17.5522Z" fill="#C7E1DB"/>
<path fill-rule="evenodd" clip-rule="evenodd" d="M12.1705 23.2685C12.2723 23.2515 12.2554 23.4721 12.3402 23.489C12.3911 23.5569 12.1536 23.4551 12.1705 23.2685Z" fill="#C7E1DB"/>
<path fill-rule="evenodd" clip-rule="evenodd" d="M14.9178 28.5443C14.9347 28.4256 14.9856 28.6291 15.0535 28.5952C15.0365 28.68 14.9856 28.7139 14.9178 28.7309C14.9347 28.6461 15.0026 28.5952 14.9178 28.5443Z" fill="#C7E1DB"/>
<path fill-rule="evenodd" clip-rule="evenodd" d="M31.388 23.6755C31.5736 23.6755 31.2699 23.7936 31.4555 23.7768C31.4386 23.8105 31.3711 23.7936 31.3205 23.8105C31.3711 23.7261 31.3711 23.7261 31.388 23.6755Z" fill="#C7E1DB"/>
<path fill-rule="evenodd" clip-rule="evenodd" d="M31.4053 23.8454C31.4732 23.8284 31.4902 23.8454 31.541 23.8624C31.5241 23.9133 31.3036 23.9133 31.4223 23.9811C31.3884 24.049 31.3714 23.9472 31.3205 23.9472C31.3545 23.9133 31.4223 23.8963 31.4053 23.8454Z" fill="#C7E1DB"/>
<path fill-rule="evenodd" clip-rule="evenodd" d="M31.543 23.9469C31.509 23.9978 31.4751 24.0148 31.526 24.0656C31.4751 24.0656 31.4412 24.0826 31.4242 24.1165C31.4242 24.0996 31.4412 23.9469 31.543 23.9469Z" fill="#C7E1DB"/>
<path fill-rule="evenodd" clip-rule="evenodd" d="M12.8133 16.7037C12.8807 16.7206 12.9313 16.7375 12.9145 16.805C12.847 16.805 12.847 16.7375 12.8133 16.7037Z" fill="#C7E1DB"/>
<defs>
<radialGradient id="paint0_radial_109_423" cx="0" cy="0" r="1" gradientUnits="userSpaceOnUse" gradientTransform="translate(22.1422 21.6311) rotate(-8.06893) scale(21.6109 21.6109)">
<stop offset="0.00396825" stop-color="#005BFC"/>
<stop offset="0.0305" stop-color="#0057F1"/>
<stop offset="0.1881" stop-color="#0040B2"/>
<stop offset="0.3441" stop-color="#002D7C"/>
<stop offset="0.4946" stop-color="#001D4F"/>
<stop offset="0.6384" stop-color="#00102D"/>
<stop offset="0.774" stop-color="#000714"/>
<stop offset="0.8981" stop-color="#060606"/>
<stop offset="1" stop-color="#050505"/>
</radialGradient>
<radialGradient id="paint1_radial_109_423" cx="0" cy="0" r="1" gradientUnits="userSpaceOnUse" gradientTransform="translate(19.1688 18.3275) scale(13.6421)">
<stop stop-color="#85DEDA"/>
<stop offset="1" stop-color="#599CDA"/>
</radialGradient>
</defs>
</svg>
